<svg width="69" height="104" viewBox="0 0 69 104" fill="none" xmlns="http://www.w3.org/2000/svg">
<path fill-rule="evenodd" clip-rule="evenodd" d="M53.6071 13.2396C53.9803 13.3554 54.4435 13.4133 54.9967 13.4133C56.129 13.4133 57.0167 13.1367 57.6601 12.5834C58.3034 12.0302 58.6251 11.2582 58.6251 10.2674C58.6251 9.43113 58.3677 8.75564 57.8531 8.24098C57.3513 7.72632 56.5407 7.31459 55.4213 7.0058C54.4692 6.72273 53.8001 6.43324 53.4141 6.13731C53.0281 5.84138 52.8351 5.46825 52.8351 5.01793C52.8351 4.58047 52.9767 4.24594 53.2597 4.01434C53.5557 3.78275 53.961 3.66695 54.4756 3.66695C55.209 3.66695 55.8395 3.90498 56.367 4.38104C56.9074 4.8571 57.2741 5.53259 57.4671 6.40751H58.2198C58.2069 5.81565 58.2005 5.32029 58.2005 4.92143C58.2133 4.52257 58.2262 4.17517 58.2391 3.87924C58.2519 3.57045 58.2712 3.28095 58.297 3.01076H57.5443C57.4799 3.20375 57.4027 3.35172 57.3127 3.45465C57.2226 3.54471 57.1132 3.58975 56.9846 3.58975C56.8044 3.58975 56.5857 3.53185 56.3284 3.41605C56.0839 3.28739 55.7816 3.17159 55.4213 3.06866C55.061 2.95286 54.6236 2.89496 54.1089 2.89496C53.1053 2.89496 52.3012 3.16515 51.6965 3.70555C51.1046 4.24594 50.8087 4.96646 50.8087 5.86711C50.8087 6.69057 51.0789 7.38536 51.6193 7.95148C52.1596 8.50474 53.0088 8.95507 54.1668 9.30246C55.0675 9.57266 55.6915 9.84929 56.0389 10.1324C56.3992 10.4154 56.5793 10.7757 56.5793 11.2131C56.5793 11.6635 56.4185 12.0173 56.0968 12.2746C55.7751 12.5191 55.3248 12.6413 54.7458 12.6413C53.8709 12.6413 53.1504 12.3711 52.5842 11.8307C52.031 11.2903 51.645 10.4926 51.4263 9.43756H50.6929V11.0201C50.6929 11.4705 50.6864 11.8822 50.6736 12.2553C50.6607 12.6156 50.635 12.9694 50.5964 13.3168H51.3491C51.4906 12.9179 51.7158 12.7185 52.0246 12.7185C52.2175 12.7185 52.4363 12.7764 52.6807 12.8922C52.9252 13.008 53.234 13.1238 53.6071 13.2396ZM62.2729 12.5834C62.7747 13.1367 63.5274 13.4133 64.531 13.4133C65.3287 13.4133 65.9656 13.2203 66.4417 12.8343C66.9177 12.4483 67.2909 11.8372 67.5611 11.0008L66.9628 10.7499C66.7955 11.2131 66.5832 11.567 66.3259 11.8114C66.0686 12.043 65.7533 12.1588 65.3802 12.1588C64.9813 12.1588 64.679 12.043 64.4731 11.8114C64.2801 11.567 64.1836 11.2003 64.1836 10.7113V3.91784H67.0786V3.16515H64.1836V0C63.7848 0.115798 63.3666 0.205864 62.9291 0.270197C62.4917 0.33453 62.022 0.366696 61.5203 0.366696V3.16515H59.4166V3.91784H61.5203V10.0745C61.5203 11.181 61.7711 12.0173 62.2729 12.5834ZM2.08365 95.6533V103.041C5.49327 102.915 10.3551 102.788 16.6692 102.662C22.9833 102.409 29.4237 102.283 35.9904 102.283C42.1782 102.283 48.3029 102.409 54.3644 102.662C60.426 102.788 65.0353 102.915 68.1923 103.041V95.6533C59.2263 95.5271 52.9753 94.4537 49.4394 92.4332C45.9035 90.2864 44.1356 86.4347 44.1356 80.8783V1.51004C38.8317 4.79337 32.7702 7.19273 25.951 8.70812C19.1317 10.0972 10.4814 10.9181 0 11.1706V18.5581C7.45064 18.5581 13.1333 19.0633 17.0481 20.0735C20.9628 21.0838 23.6148 23.0411 25.0039 25.9456C26.393 28.8501 27.0875 33.27 27.0875 39.2052V80.8783C27.0875 86.4347 25.067 90.2864 21.026 92.4332C17.1112 94.4537 10.7971 95.5271 2.08365 95.6533Z" fill="url(#paint0_radial_7635_988)"/>
<defs>
<radialGradient id="paint0_radial_7635_988" cx="0" cy="0" r="1" gradientUnits="userSpaceOnUse" gradientTransform="translate(43.2298 4.66736) rotate(94.3304) scale(98.6551 68.5187)">
<stop offset="0.17528" stop-color="#D711D7"/>
<stop offset="1" stop-color="#7B057B"/>
</radialGradient>
</defs>
</svg>
