<svg width="100" height="72" viewBox="0 0 100 72" fill="none" xmlns="http://www.w3.org/2000/svg">
<path d="M9.38562 72L6.49776 64.9459C15.1612 62.1892 21.739 58.3784 26.2312 53.5135C30.7234 48.8108 32.9696 43.7838 32.9696 38.4324C32.9696 34.7027 31.6058 32.8378 28.8785 32.8378C27.1136 32.8378 25.2687 33.2432 23.3435 34.0541C21.2577 34.8648 18.8513 35.2703 16.1238 35.2703C11.3107 35.2703 7.46038 33.6487 4.57252 30.4054C1.52426 27.3243 0.0001297 23.3513 0.0001297 18.4865C0.0001297 12.973 1.92538 8.51352 5.77573 5.10809C9.46582 1.70265 14.3591 0 20.4556 0C27.5148 0 33.13 2.59457 37.3014 7.78373C41.3122 13.1351 43.3177 20.3513 43.3177 29.4324C43.3177 40.1352 40.4298 49.054 34.6541 56.1892C28.8785 63.3243 20.4556 68.5946 9.38562 72ZM65.6984 72L63.0511 64.9459C71.5543 62.1892 78.1321 58.3784 82.7847 53.5135C87.2769 48.8108 89.5231 43.7838 89.5231 38.4324C89.5231 34.7027 88.0791 32.8378 85.1913 32.8378C83.5869 32.8378 81.7419 33.2432 79.6563 34.0541C77.5706 34.8648 75.2443 35.2703 72.6773 35.2703C67.7038 35.2703 63.7732 33.6487 60.8853 30.4054C57.837 27.3243 56.3129 23.3513 56.3129 18.4865C56.3129 12.973 58.2382 8.51352 62.0886 5.10809C65.7786 1.70265 70.6719 0 76.7684 0C83.8275 0 89.4429 2.59457 93.6141 7.78373C97.7854 13.1351 99.8711 20.3513 99.8711 29.4324C99.8711 40.1352 96.9833 49.054 91.2076 56.1892C85.4319 63.3243 76.9288 68.5946 65.6984 72Z" fill="url(#paint0_radial_7734_524)"/>
<defs>
<radialGradient id="paint0_radial_7734_524" cx="0" cy="0" r="1" gradientUnits="userSpaceOnUse" gradientTransform="translate(31.441 52) rotate(-70.4213) scale(55.191 72.4267)">
<stop stop-color="#FFD23E"/>
<stop offset="1" stop-color="#FF9000"/>
</radialGradient>
</defs>
</svg>
