<svg width="100" height="72" viewBox="0 0 100 72" fill="none" xmlns="http://www.w3.org/2000/svg">
<path d="M90.4855 0L93.3733 7.05406C84.7099 9.81076 78.1321 13.6216 73.6399 18.4865C69.1477 23.1892 66.9015 28.2162 66.9015 33.5676C66.9015 37.2973 68.2653 39.1622 70.9926 39.1622C72.7574 39.1622 74.6024 38.7568 76.5276 37.9459C78.6134 37.1352 81.0198 36.7297 83.7473 36.7297C88.5604 36.7297 92.4107 38.3513 95.2986 41.5946C98.3468 44.6757 99.871 48.6487 99.871 53.5135C99.871 59.027 97.9457 63.4865 94.0954 66.8919C90.4053 70.2973 85.512 72 79.4155 72C72.3563 72 66.7411 69.4054 62.5697 64.2163C58.5589 58.8649 56.5534 51.6487 56.5534 42.5676C56.5534 31.8648 59.4413 22.946 65.217 15.8108C70.9926 8.67566 79.4155 3.40545 90.4855 0ZM34.1727 0L36.82 7.05406C28.3168 9.81076 21.739 13.6216 17.0864 18.4865C12.5942 23.1892 10.348 28.2162 10.348 33.5676C10.348 37.2973 11.792 39.1622 14.6798 39.1622C16.2842 39.1622 18.1292 38.7568 20.2148 37.9459C22.3005 37.1352 24.6268 36.7297 27.1938 36.7297C32.1673 36.7297 36.0979 38.3513 38.9858 41.5946C42.0341 44.6757 43.5582 48.6487 43.5582 53.5135C43.5582 59.027 41.6329 63.4865 37.7825 66.8919C34.0925 70.2973 29.1992 72 23.1027 72C16.0436 72 10.4282 69.4054 6.25698 64.2163C2.08566 58.8649 0 51.6487 0 42.5676C0 31.8648 2.88784 22.946 8.66351 15.8108C14.4392 8.67566 22.9423 3.40545 34.1727 0Z" fill="url(#paint0_radial_7635_993)"/>
<defs>
<radialGradient id="paint0_radial_7635_993" cx="0" cy="0" r="1" gradientUnits="userSpaceOnUse" gradientTransform="translate(68.4301 20) rotate(109.579) scale(55.191 72.4267)">
<stop stop-color="#FFD23E"/>
<stop offset="1" stop-color="#FF9000"/>
</radialGradient>
</defs>
</svg>
