<svg width="24" height="24" viewBox="0 0 24 24" fill="none" xmlns="http://www.w3.org/2000/svg">
<path d="M2.30029 9.04623L6.75753 11.0478C6.70903 10.6775 6.49741 9.79572 6.41365 9.43861L6.82366 9.35044C6.87216 9.55765 6.97356 10.0117 7.02205 10.2322C7.13227 10.7348 7.32626 11.6253 7.44088 12.1147L8.39317 12.7187L8.43726 12.6702L8.78114 12.2558L10.2008 10.5452C9.90096 9.76045 9.43364 8.49955 9.13825 7.7192C9.13825 7.7192 6.21084 7.23424 6.21084 7.22983C6.25934 7.14606 6.51064 6.88154 6.34311 6.89917C6.00426 6.89807 5.67952 6.76342 5.43931 6.52443L4.42971 5.51924C4.2086 5.32997 4.02083 5.10494 3.87421 4.85352L1.91232 6.76691C1.75084 6.92633 1.63019 7.12235 1.56062 7.33834C1.49105 7.55433 1.4746 7.78391 1.51268 8.00761C1.55076 8.23131 1.64223 8.44253 1.77934 8.62334C1.91645 8.80415 2.09516 8.94921 2.30029 9.04623Z" fill="white"/>
<path d="M12.4758 9.13868C11.669 10.1042 10.2714 11.7839 9.46899 12.7494H11.3163C11.5894 12.7183 11.8661 12.753 12.1231 12.8508L12.6565 13.1242L13.2164 12.4408C13.268 12.3729 13.3347 12.3181 13.4113 12.2805C13.4878 12.243 13.5721 12.2239 13.6573 12.2248H18.1234C18.5484 12.225 18.9657 12.1108 19.3314 11.8941L21.258 10.7479L21.2888 10.7258C21.0288 10.6719 20.7943 10.5321 20.6231 10.329C20.5526 10.2541 20.3013 9.9543 20.2307 9.88817L19.6444 9.21804C19.4768 9.07682 19.3401 8.90251 19.243 8.70602C19.1459 8.50953 19.0904 8.2951 19.0801 8.07617L17.4312 8.84329C17.1567 8.97334 16.8491 9.01641 16.5494 8.96674L13.115 8.38919L12.4758 9.13868Z" fill="white"/>
<path d="M11.1927 9.35485C11.3955 9.11677 11.929 8.4731 12.1362 8.2218L10.1082 7.88232L10.624 9.26226L10.8268 9.79572L11.1927 9.35485Z" fill="white"/>
<path d="M11.9158 7.56033C12.3741 7.5559 12.8242 7.43922 13.227 7.2205C13.6297 7.00178 13.9726 6.68769 14.2258 6.30571C14.479 5.92374 14.6347 5.48552 14.6794 5.02942C14.724 4.57333 14.6561 4.11325 14.4817 3.68945L13.6925 4.00247C13.1988 4.16119 11.6513 4.91508 11.1399 4.88422C10.745 4.85213 10.3563 4.7661 9.98478 4.62852L9.15593 4.39485C9.13436 4.52599 9.12403 4.65874 9.12507 4.79164C9.13204 5.5276 9.42899 6.23112 9.95148 6.74948C10.474 7.26784 11.1798 7.5592 11.9158 7.56033Z" fill="white"/>
<path d="M10.8754 3.98476C11.0859 4.03813 11.3079 4.02426 11.5102 3.94508L13.1591 3.29259L14.0188 2.95311C13.7146 2.60794 13.3302 2.34292 12.8994 2.1814C12.4687 2.01989 12.0048 1.96686 11.5486 2.02697C11.0925 2.08709 10.6582 2.25852 10.284 2.52613C9.90978 2.79375 9.60717 3.14933 9.40283 3.56152L10.8754 3.98476Z" fill="white"/>
<path d="M20.9537 20.0062C21.1766 19.5428 21.2091 19.0106 21.0443 18.5236C20.8795 18.0365 20.5304 17.6334 20.072 17.4006L12.7711 13.662C12.6653 13.6135 12.4845 13.5077 12.3831 13.4592C12.2817 13.4107 11.8761 13.155 11.7174 13.177C11.5587 13.1991 11.3206 13.177 11.2016 13.177H8.9487C8.80762 13.177 8.46374 13.177 8.33148 13.177L7.81125 12.8464L4.8133 10.9418C4.61109 10.8151 4.38006 10.7418 4.14181 10.7287C3.90356 10.7156 3.66588 10.7631 3.451 10.8669L2.45903 11.3518C2.18051 11.4864 1.95453 11.7097 1.81651 11.9865C1.67848 12.2634 1.63621 12.5782 1.69631 12.8816L2.57806 17.5373C2.65249 17.9231 2.86017 18.2705 3.16481 18.5188C3.46945 18.767 3.85164 18.9002 4.24457 18.8952H4.90147C5.32205 18.8895 5.72511 18.7259 6.03059 18.4367C6.33607 18.1476 6.5216 17.7541 6.55034 17.3345L10.7431 17.2904L15.4075 19.5477L18.3173 20.9541C18.7929 21.176 19.3369 21.2009 19.8308 21.0233C20.3247 20.8458 20.7283 20.4801 20.9537 20.0062Z" fill="white"/>
<path opacity="0.6" d="M19.7678 8.68876L20.6099 9.65869C20.8833 9.97171 21.161 10.3861 21.6327 10.3332C21.8205 10.3281 22.0003 10.2562 22.1397 10.1304L23.0788 9.3148C23.2481 9.16615 23.3515 8.95642 23.3664 8.73162C23.3813 8.50682 23.3064 8.28529 23.1582 8.11563L21.9414 6.70924C21.8681 6.6249 21.7788 6.55591 21.6788 6.50624C21.5787 6.45657 21.4698 6.42719 21.3583 6.41982C21.2468 6.41244 21.135 6.4272 21.0292 6.46326C20.9235 6.49931 20.8259 6.55594 20.7422 6.62988L19.8207 7.42786C19.7299 7.50425 19.6559 7.59872 19.6036 7.70526C19.5512 7.81179 19.5216 7.92806 19.5166 8.04666C19.5116 8.16526 19.5314 8.2836 19.5747 8.39415C19.6179 8.50469 19.6837 8.60503 19.7678 8.68876Z" fill="white"/>
<path opacity="0.6" d="M4.41655 4.89315L5.58487 6.05706C5.58487 6.05706 5.73477 6.21137 5.73918 6.21577C5.82514 6.29683 5.92651 6.35977 6.03728 6.40088C6.14805 6.44199 6.26594 6.46042 6.38397 6.45507C6.502 6.44973 6.61775 6.42071 6.72434 6.36976C6.83094 6.31881 6.9262 6.24695 7.00449 6.15846L7.82451 5.33843C7.977 5.17514 8.06181 4.96006 8.06181 4.73664C8.06181 4.51322 7.977 4.29814 7.82451 4.13485L6.50189 2.81222C6.42317 2.73264 6.32945 2.66947 6.22615 2.62635C6.12286 2.58324 6.01203 2.56104 5.9001 2.56104C5.78816 2.56104 5.67734 2.58324 5.57404 2.62635C5.47074 2.66947 5.37702 2.73264 5.2983 2.81222C5.14841 2.98857 4.30634 3.72043 4.24902 3.94086C4.177 4.09784 4.15445 4.27302 4.18438 4.44312C4.2143 4.61321 4.29528 4.77018 4.41655 4.89315Z" fill="white"/>
<path opacity="0.6" d="M6.46217 18.613C6.11783 18.9932 5.64853 19.2372 5.13955 19.3008C4.98524 19.3272 4.41211 19.3272 4.2578 19.3316C3.76393 19.338 3.28344 19.1711 2.89991 18.8599L2.97926 19.1817C2.09751 19.2699 0.49714 19.5829 0.135623 20.716C0.0952402 20.8532 0.0873631 20.998 0.112615 21.1388C0.137867 21.2796 0.195555 21.4126 0.28111 21.5272C0.366664 21.6418 0.477736 21.735 0.605529 21.7993C0.733321 21.8635 0.874324 21.8972 1.01737 21.8975H5.86699C5.99066 21.8965 6.11286 21.8705 6.22628 21.8212C6.33971 21.7719 6.44206 21.7003 6.52722 21.6106C6.61238 21.5209 6.67861 21.415 6.72197 21.2992C6.76533 21.1834 6.78493 21.06 6.7796 20.9364L6.63852 18.3926C6.58363 18.4691 6.52476 18.5427 6.46217 18.613Z" fill="white"/>
<path opacity="0.6" d="M23.0479 19.2965L21.5181 18.6616C21.5798 18.9671 21.5798 19.2819 21.5181 19.5875C21.4568 19.9263 21.3231 20.2478 21.126 20.5301C20.9289 20.8124 20.6732 21.0488 20.3762 21.2231L21.9501 21.8888C22.2939 22.0344 22.6814 22.0374 23.0274 21.8973C23.3735 21.7572 23.6496 21.4853 23.7952 21.1415C23.9408 20.7978 23.9438 20.4103 23.8037 20.0642C23.6635 19.7182 23.3917 19.4421 23.0479 19.2965Z" fill="white"/>
</svg>
