<svg width="24" height="24" viewBox="0 0 24 24" fill="none" xmlns="http://www.w3.org/2000/svg">
<g clip-path="url(#clip0_9654_83)">
<path d="M19.3437 22.7314C19.5495 22.7314 19.7526 22.8097 19.907 22.9589C20.8944 23.9124 22.3347 24.2298 23.6151 23.8325C22.7911 22.1158 22.6769 20.1491 23.3154 18.3282C24.1079 16.0625 24.3065 13.7917 23.4046 11.5142C22.6123 9.51344 21.0832 7.8512 19.1481 6.90332C19.2671 7.53801 19.3271 8.18471 19.3271 8.83823C19.3272 11.6122 18.2605 14.2212 16.3237 16.1847C14.3867 18.1484 11.7902 19.2526 9.01258 19.2939C8.49652 19.3019 7.98277 19.2716 7.47485 19.2046C9.00141 21.8804 11.8805 23.6232 15.0442 23.6701C16.4282 23.6915 17.757 23.4015 18.9946 22.8106C19.106 22.7573 19.2253 22.7314 19.3437 22.7314Z" fill="white" fill-opacity="0.6"/>
<path d="M9.03546 0.00176341C4.10798 -0.0960782 0.0118774 3.89018 -3.799e-06 8.81659C-0.00291469 10.0202 0.232036 11.1872 0.698372 12.2852C0.705145 12.3012 0.711442 12.3174 0.717145 12.3338C1.3557 14.1548 1.24158 16.1214 0.417501 17.8381C1.698 18.2353 3.13811 17.918 4.12556 16.9645C4.36883 16.7295 4.73281 16.6703 5.03804 16.8162C6.2754 17.4072 7.60443 17.698 8.98835 17.6758C13.8773 17.6032 17.7069 13.7213 17.7068 8.83834C17.7069 4.06192 13.8169 0.0978822 9.03546 0.00176341ZM4.13091 10.1583C3.42297 10.1583 2.84905 9.58537 2.84905 8.87861C2.84905 8.17186 3.42297 7.59889 4.13091 7.59889C4.83885 7.59889 5.41277 8.17186 5.41277 8.87861C5.41271 9.58537 4.83885 10.1583 4.13091 10.1583ZM8.85344 10.1583C8.1455 10.1583 7.57158 9.58537 7.57158 8.87861C7.57158 8.17186 8.1455 7.59889 8.85344 7.59889C9.56138 7.59889 10.1353 8.17186 10.1353 8.87861C10.1353 9.58537 9.56138 10.1583 8.85344 10.1583ZM13.576 10.1583C12.8681 10.1583 12.2942 9.58537 12.2942 8.87861C12.2942 8.17186 12.8681 7.59889 13.576 7.59889C14.284 7.59889 14.8579 8.17186 14.8579 8.87861C14.8579 9.58537 14.284 10.1583 13.576 10.1583Z" fill="white"/>
</g>
<defs>
<clipPath id="clip0_9654_83">
<rect width="24" height="24" fill="white"/>
</clipPath>
</defs>
</svg>
