<svg width="24" height="24" viewBox="0 0 24 24" fill="none" xmlns="http://www.w3.org/2000/svg">
<g clip-path="url(#clip0_9654_72)">
<path d="M12.0043 11.2032C13.5712 11.2032 14.8458 9.92859 14.8458 8.36176C14.8458 6.7951 13.5712 5.52051 12.0043 5.52051C10.4377 5.52051 9.16309 6.7951 9.16309 8.36176C9.16309 9.92859 10.4377 11.2032 12.0043 11.2032Z" fill="white"/>
<path d="M22.6915 7.68414C22.4767 7.46954 22.1911 7.35107 21.8873 7.35107C21.5836 7.35107 21.2981 7.46954 21.0833 7.68414L18.8969 9.87061C17.9872 10.7805 16.9232 11.4913 15.7346 11.9836C14.5459 12.4758 13.2911 12.7256 12.0044 12.7256C10.7179 12.7256 9.46289 12.4758 8.27435 11.9836C7.08563 11.4913 6.02179 10.7803 5.11212 9.87061L2.92566 7.68414C2.48236 7.24084 1.76074 7.24084 1.31744 7.68414C1.10266 7.89911 0.984375 8.18457 0.984375 8.48834C0.984375 8.79211 1.10266 9.07758 1.31744 9.29236L7.56134 15.5363C7.6983 15.6732 7.77521 15.8591 7.77521 16.0528V19.9586H16.2338V16.0528C16.2338 15.8591 16.3107 15.6732 16.4476 15.5363L22.6915 9.29254C23.1348 8.84906 23.1348 8.12762 22.6915 7.68414Z" fill="white"/>
<path d="M7.77515 22.8945C7.77515 23.505 8.27008 23.9999 8.88055 23.9999H15.1281C15.7386 23.9999 16.2337 23.505 16.2337 22.8945V21.4194H7.77515V22.8945Z" fill="white"/>
<g opacity="0.6">
<path d="M12.0042 3.16553C12.4075 3.16553 12.7346 2.8385 12.7346 2.43512V0.730408C12.7346 0.327026 12.4075 0 12.0042 0C11.6008 0 11.2739 0.327026 11.2739 0.730408V2.43512C11.2739 2.8385 11.6008 3.16553 12.0042 3.16553Z" fill="white"/>
<path d="M15.4266 4.58279C15.6136 4.58279 15.8005 4.51157 15.943 4.36874L17.1485 3.16336C17.4338 2.87808 17.4338 2.41574 17.1485 2.13046C16.8634 1.84518 16.4009 1.84518 16.1156 2.13046L14.9102 3.33603C14.625 3.62112 14.625 4.08365 14.9102 4.36874C15.0527 4.51157 15.2397 4.58279 15.4266 4.58279Z" fill="white"/>
<path d="M8.06577 4.36923C8.2084 4.51187 8.39517 4.58328 8.58212 4.58328C8.76889 4.58328 8.95584 4.51205 9.09848 4.36923C9.38376 4.08414 9.38376 3.6218 9.09848 3.33652L7.89291 2.13095C7.60782 1.84567 7.14529 1.84567 6.8602 2.13095C6.57492 2.41623 6.57492 2.87857 6.8602 3.16385L8.06577 4.36923Z" fill="white"/>
</g>
</g>
<defs>
<clipPath id="clip0_9654_72">
<rect width="24" height="24" fill="white"/>
</clipPath>
</defs>
</svg>
