<svg width="24" height="24" viewBox="0 0 24 24" fill="none" xmlns="http://www.w3.org/2000/svg">
<g clip-path="url(#clip0_9654_42)">
<path d="M12 24C13.0368 24 13.932 23.3845 14.341 22.5H9.65906C10.068 23.3845 10.9633 24 12 24Z" fill="white"/>
<path d="M11.2969 17.8124V12.1261C9.69416 11.843 8.48442 10.612 8.48442 9.14057C8.48442 8.75226 8.79923 8.43745 9.18754 8.43745C9.57585 8.43745 9.89066 8.75226 9.89066 9.14057C9.89066 9.85349 10.4785 10.4614 11.2969 10.6871V0.48056C10.8143 0.171468 10.2478 0 9.65628 0C8.17762 0 6.91632 1.06767 6.6594 2.50864C4.96614 3.00383 3.79694 4.55252 3.79694 6.32809C3.79694 7.27749 4.13304 8.1848 4.74775 8.9062C4.13308 9.6276 3.79694 10.5349 3.79694 11.4843C3.79694 13.2599 4.96614 14.8086 6.6594 15.3038C6.91627 16.7447 8.17762 17.8124 9.65628 17.8124H11.2969Z" fill="white"/>
<path d="M8.48442 19.9219C8.48442 20.5691 9.00909 21.0938 9.6563 21.0938H14.3438C14.991 21.0938 15.5157 20.5691 15.5157 19.9219V19.2188H8.48442V19.9219Z" fill="white"/>
<path d="M17.3406 2.50864C17.0837 1.06771 15.8224 0 14.3437 0C13.7522 0 13.1857 0.171468 12.7031 0.48056V5.68633C14.3058 5.9694 15.5156 7.20047 15.5156 8.67187C15.5156 9.06018 15.2008 9.37499 14.8125 9.37499C14.4241 9.37499 14.1093 9.06018 14.1093 8.67187C14.1093 7.95895 13.5215 7.35108 12.7031 7.12533V17.8124H14.3437C15.8224 17.8124 17.0837 16.7448 17.3406 15.3038C19.0339 14.8086 20.2031 13.2599 20.2031 11.4844C20.2031 10.535 19.867 9.62765 19.2523 8.90624C19.867 8.18484 20.2031 7.27753 20.2031 6.32813C20.2031 4.55252 19.0339 3.00387 17.3406 2.50864Z" fill="white"/>
<path d="M2.10882 3.98454C1.9748 3.98454 1.83929 3.94629 1.71943 3.86637L0.31318 2.92887C-0.00992937 2.71348 -0.0972575 2.27693 0.118133 1.95382C0.333571 1.63066 0.770164 1.54338 1.09318 1.75882L2.49943 2.69632C2.82254 2.91171 2.90987 3.34826 2.69448 3.67137C2.55901 3.87457 2.33602 3.98454 2.10882 3.98454Z" fill="white" fill-opacity="0.6"/>
<path d="M0.703829 15.7033C0.476626 15.7033 0.253641 15.5934 0.118125 15.3901C-0.0972651 15.067 -0.009937 14.6305 0.313172 14.4151L1.71942 13.4776C2.04248 13.2621 2.47908 13.3495 2.69447 13.6726C2.90986 13.9957 2.82253 14.4322 2.49942 14.6476L1.09317 15.5851C0.97336 15.665 0.837844 15.7033 0.703829 15.7033Z" fill="white" fill-opacity="0.6"/>
<path d="M2.10935 9.375H0.703102C0.31479 9.375 -2.28882e-05 9.06019 -2.28882e-05 8.67188C-2.28882e-05 8.28356 0.31479 7.96875 0.703102 7.96875H2.10935C2.49766 7.96875 2.81248 8.28356 2.81248 8.67188C2.81248 9.06019 2.49766 9.375 2.10935 9.375Z" fill="white" fill-opacity="0.6"/>
<path d="M21.8911 3.98459C21.6639 3.98459 21.4409 3.87463 21.3054 3.67138C21.09 3.34827 21.1773 2.91172 21.5004 2.69633L22.9067 1.75883C23.2297 1.54334 23.6663 1.63072 23.8817 1.95383C24.0971 2.27694 24.0098 2.71349 23.6867 2.92888L22.2804 3.86638C22.1606 3.9463 22.0251 3.98459 21.8911 3.98459Z" fill="white" fill-opacity="0.6"/>
<path d="M23.2961 15.7033C23.1621 15.7033 23.0265 15.665 22.9067 15.5851L21.5004 14.6476C21.1773 14.4322 21.09 13.9957 21.3054 13.6726C21.5208 13.3494 21.9574 13.2622 22.2804 13.4776L23.6867 14.4151C24.0098 14.6304 24.0971 15.067 23.8817 15.3901C23.7463 15.5933 23.5233 15.7033 23.2961 15.7033Z" fill="white" fill-opacity="0.6"/>
<path d="M23.2969 9.375H21.8906C21.5023 9.375 21.1875 9.06019 21.1875 8.67188C21.1875 8.28356 21.5023 7.96875 21.8906 7.96875H23.2969C23.6852 7.96875 24 8.28356 24 8.67188C24 9.06019 23.6852 9.375 23.2969 9.375Z" fill="white" fill-opacity="0.6"/>
</g>
<defs>
<clipPath id="clip0_9654_42">
<rect width="24" height="24" fill="white"/>
</clipPath>
</defs>
</svg>
