<svg width="24" height="24" viewBox="0 0 24 24" fill="none" xmlns="http://www.w3.org/2000/svg">
<path d="M12.1659 3.93555C11.5931 4.93403 11.3343 6.08185 11.4231 7.22953C11.4384 7.404 11.4989 7.57149 11.5985 7.71557L11.4335 7.90416L1.25689 19.3575C1.07081 19.5672 0.971848 19.84 0.980228 20.1202C0.988608 20.4005 1.1037 20.6669 1.30198 20.8651L3.13453 22.6977C3.3328 22.8959 3.59928 23.0109 3.8795 23.0191C4.15972 23.0274 4.43252 22.9283 4.64214 22.7422L16.0955 12.5705L16.2841 12.4055C16.427 12.5048 16.5934 12.5651 16.7668 12.5804C16.9158 12.5919 17.0659 12.598 17.2155 12.598C18.2154 12.5963 19.1975 12.3328 20.0641 11.8337L12.1659 3.93555ZM13.0055 11.7716L11.8393 12.9378C11.7356 13.0379 11.5967 13.0933 11.4526 13.0921C11.3084 13.0908 11.1705 13.033 11.0686 12.9311C10.9666 12.8291 10.9088 12.6912 10.9075 12.5471C10.9063 12.4029 10.9617 12.264 11.0619 12.1603L12.228 10.9942C12.3317 10.894 12.4706 10.8386 12.6148 10.8398C12.7589 10.8411 12.8968 10.8989 12.9988 11.0009C13.1007 11.1028 13.1585 11.2407 13.1598 11.3849C13.1611 11.529 13.1056 11.6679 13.0055 11.7716Z" fill="white"/>
<path d="M12.8092 3.02416L20.9752 11.1901C21.2536 10.9531 21.51 10.6912 21.7411 10.4077C22.4197 9.55379 22.8437 8.52574 22.9644 7.44167C23.085 6.3576 22.8975 5.26148 22.4232 4.27923C21.9489 3.29699 21.2071 2.46846 20.2831 1.88883C19.3591 1.3092 18.2903 1.00198 17.1995 1.00246C16.438 1.00045 15.6836 1.14947 14.98 1.4409C14.2765 1.73233 13.6377 2.16039 13.1006 2.70031C12.9972 2.80368 12.9043 2.91474 12.8098 3.02416H12.8092Z" fill="white"/>
<path d="M6.80797 4.94356L5.15851 3.84392C5.0757 3.78867 4.97946 3.75694 4.88003 3.75211C4.78061 3.74728 4.68174 3.76954 4.59397 3.8165C4.5062 3.86346 4.43283 3.93336 4.38168 4.01876C4.33053 4.10415 4.30352 4.20183 4.30353 4.30137V7.70147C4.12745 7.63635 3.94144 7.60212 3.75371 7.6003C3.42748 7.6003 3.10857 7.69704 2.83732 7.87828C2.56607 8.05953 2.35465 8.31714 2.22981 8.61854C2.10496 8.91994 2.0723 9.25159 2.13594 9.57156C2.19959 9.89152 2.35668 10.1854 2.58737 10.4161C2.81805 10.6468 3.11195 10.8039 3.43192 10.8675C3.75188 10.9312 4.08354 10.8985 4.38494 10.7737C4.68634 10.6488 4.94395 10.4374 5.12519 10.1662C5.30644 9.8949 5.40318 9.576 5.40318 9.24976V5.32899L6.19767 5.85846C6.31899 5.93939 6.4675 5.96882 6.61051 5.94025C6.75353 5.91169 6.87934 5.82749 6.96027 5.70616C7.0412 5.58484 7.07062 5.43633 7.04206 5.29332C7.0135 5.1503 6.9293 5.02449 6.80797 4.94356Z" fill="white" fill-opacity="0.6"/>
<path d="M21.1033 15.9401L19.4538 14.8405C19.371 14.7853 19.2747 14.7535 19.1753 14.7487C19.0759 14.7439 18.977 14.7661 18.8893 14.8131C18.8015 14.86 18.7281 14.9299 18.677 15.0153C18.6258 15.1007 18.5988 15.1984 18.5988 15.298V18.698C18.4227 18.6329 18.2367 18.5987 18.049 18.5969C17.7228 18.5969 17.4039 18.6936 17.1326 18.8749C16.8614 19.0561 16.6499 19.3137 16.5251 19.6151C16.4003 19.9165 16.3676 20.2482 16.4312 20.5681C16.4949 20.8881 16.652 21.182 16.8827 21.4127C17.1133 21.6434 17.4072 21.8005 17.7272 21.8641C18.0472 21.9278 18.3788 21.8951 18.6802 21.7703C18.9816 21.6454 19.2392 21.434 19.4205 21.1627C19.6017 20.8915 19.6985 20.5726 19.6985 20.2463V16.3256L20.493 16.855C20.553 16.8951 20.6204 16.923 20.6912 16.937C20.7621 16.951 20.835 16.951 20.9058 16.9368C20.9766 16.9227 21.044 16.8947 21.104 16.8546C21.164 16.8144 21.2155 16.7628 21.2556 16.7027C21.2956 16.6427 21.3235 16.5753 21.3375 16.5045C21.3515 16.4336 21.3515 16.3607 21.3374 16.2899C21.3232 16.2191 21.2953 16.1518 21.2551 16.0917C21.2149 16.0317 21.1633 15.9802 21.1033 15.9401Z" fill="white" fill-opacity="0.6"/>
</svg>
