<svg width="24" height="24" viewBox="0 0 24 24" fill="none" xmlns="http://www.w3.org/2000/svg">
<g clip-path="url(#clip0_9654_328)">
<path opacity="0.6" d="M21.5116 14.9059C20.1499 14.9899 18.3585 16.3509 16.6303 17.1335C14.5134 18.0912 11.2165 17.3209 11.2162 17.3209C11.7241 17.0828 13.7904 16.5905 14.2069 16.4066C16.4192 15.4343 16.2326 13.4049 15.1789 13.422C13.7859 13.4454 12.9697 13.7871 10.1919 14.1658C8.08658 14.4519 5.59666 14.3473 4.40217 14.8033C2.71616 15.4475 0 19.7803 0 19.7803L4.19901 23.8481C4.19901 23.8481 6.79797 21.2889 8.06247 21.2889C10.9439 21.2889 11.0609 21.2494 13.7373 21.1049C14.8742 21.0441 15.1125 20.9973 15.7634 20.7767C19.2316 19.6051 22.9561 16.4819 23.0246 16.1061C23.1839 15.2363 22.2323 14.8612 21.5116 14.9059Z" fill="white"/>
<path d="M15.7172 8.61029C15.7894 8.62501 15.8629 8.59312 15.9019 8.53069C16.8665 6.97623 18.3231 5.0958 20.2225 3.81786C18.4522 5.51795 17.2021 7.30753 16.4443 8.99218C16.4216 9.04278 16.4241 9.1009 16.4509 9.14944C16.4779 9.19792 16.526 9.23096 16.5809 9.23855C16.7046 9.25533 16.8331 9.26401 16.9625 9.26401C18.1756 9.26401 19.384 8.52478 20.1838 7.90474C21.0974 7.19669 21.9746 6.2611 22.5308 5.40151C23.365 4.11226 23.8866 2.52333 23.9996 0.927077C24.0033 0.876286 23.9847 0.826459 23.9486 0.790263C23.9125 0.754259 23.8625 0.735357 23.8117 0.739279C22.6031 0.824852 19.6041 1.21273 17.8503 2.96309C17.7891 3.01838 17.1434 3.61251 16.5429 4.56217C15.7199 5.86435 15.3863 7.2136 15.5786 8.46453C15.5896 8.53744 15.6448 8.59556 15.7172 8.61029Z" fill="white"/>
<path d="M10.9207 10.4742C11.6831 11.0652 12.8347 11.7696 13.991 11.7696C14.1143 11.7696 14.2367 11.7615 14.3544 11.7452C14.4068 11.738 14.4527 11.7066 14.4783 11.6605C14.5039 11.6143 14.5062 11.5588 14.4847 11.5106C13.7626 9.9051 12.5711 8.19955 10.8838 6.57925C12.6941 7.79727 14.0824 9.58949 15.0017 11.0709C15.0388 11.1304 15.1091 11.1606 15.1778 11.1466C15.2464 11.1324 15.2993 11.0772 15.31 11.0078C15.493 9.81573 15.1753 8.52969 14.3908 7.28885C13.8186 6.38361 13.2029 5.81771 13.1446 5.76479C11.4734 4.09679 8.61516 3.72698 7.46323 3.64552C7.41495 3.64173 7.36718 3.65966 7.33291 3.69406C7.29858 3.72839 7.28077 3.7761 7.28424 3.82451C7.392 5.34573 7.88904 6.86002 8.68402 8.08858C9.21404 8.90786 10.0502 9.79947 10.9207 10.4742Z" fill="white"/>
<path d="M12.5684 4.70117C13.0763 5.09464 13.8433 5.56391 14.6134 5.56391C14.6955 5.56391 14.7771 5.55832 14.8556 5.54758C14.8907 5.54282 14.9211 5.52193 14.9381 5.49126C14.9552 5.46027 14.9568 5.4235 14.9423 5.39122C14.4613 4.32172 13.668 3.18592 12.5441 2.10678C13.7497 2.91789 14.6743 4.1118 15.2868 5.0983C15.3114 5.13784 15.3583 5.15823 15.404 5.14877C15.4498 5.13939 15.4849 5.10261 15.4921 5.05632C15.6139 4.26231 15.4024 3.4058 14.8799 2.57926C14.4988 1.97652 14.0887 1.59944 14.05 1.56428C12.9367 0.453237 11.0331 0.206996 10.2659 0.152669C10.2335 0.150162 10.2018 0.162249 10.1789 0.185073C10.156 0.207897 10.1442 0.239721 10.1465 0.271932C10.2182 1.28525 10.5493 2.2938 11.0788 3.11205C11.4318 3.65777 11.9888 4.25157 12.5684 4.70117Z" fill="white"/>
</g>
<defs>
<clipPath id="clip0_9654_328">
<rect width="24" height="24" fill="white"/>
</clipPath>
</defs>
</svg>
