<svg width="28" height="28" viewBox="0 0 28 28" fill="none" xmlns="http://www.w3.org/2000/svg">
<path opacity="0.6" d="M15.0067 19.8914L14.0671 16.188C14.0253 16.023 14.0797 15.853 14.1848 15.7288C14.2899 15.6046 14.4732 15.5581 14.6385 15.5942C14.8864 15.6484 15.1387 15.6429 15.377 15.5825C16.257 15.3592 16.7906 14.4628 16.5673 13.5828C16.3441 12.7028 15.4477 12.1691 14.5677 12.3924C14.3294 12.4528 14.105 12.5683 13.9129 12.7341C13.7849 12.8447 13.6152 12.8682 13.45 12.8321C13.2984 12.7729 13.1695 12.6495 13.1276 12.4845L12.6904 10.7611C12.6858 10.7428 12.6811 10.7245 12.6765 10.7061L12.0765 8.34106L0.985107 11.1548L3.91527 22.7051L7.8385 21.7099C7.77994 22.0174 7.78103 22.3294 7.86475 22.6594C8.15311 23.7961 9.30696 24.4986 10.4619 24.2056C11.5986 23.9172 12.301 22.7633 12.008 21.6083C11.9243 21.2783 11.7765 21.0036 11.5784 20.7611L15.0067 19.8914Z" fill="white"/>
<path d="M20.1613 6.29007C20.2199 5.98251 20.2188 5.67056 20.1351 5.34055C19.8467 4.20385 18.6929 3.50136 17.5379 3.79436C16.4013 4.08271 15.6989 5.2366 15.9919 6.39163C16.0756 6.72164 16.2233 6.99638 16.4214 7.23883L13.0115 8.10388L13.5929 10.3956L13.6069 10.4506L13.8952 11.5873C14.0372 11.5318 14.1609 11.4809 14.3076 11.4437C15.7009 11.0902 17.1259 11.9386 17.4794 13.332C17.8328 14.7253 16.9892 16.1687 15.5959 16.5222C15.4493 16.5594 15.2979 16.5783 15.165 16.5925L15.9463 19.6726L21.1895 18.3424L27.0194 16.8635L26.0241 12.94C25.7816 13.1381 25.5069 13.2859 25.1769 13.3696C24.0403 13.6579 22.8728 12.9784 22.5797 11.8234C22.2914 10.6867 22.9708 9.51914 24.1258 9.22614C24.4558 9.14242 24.7677 9.14135 25.0753 9.19992L24.6241 7.42153L24.0846 5.2948L20.1613 6.29007Z" fill="white"/>
</svg>
