<svg width="181" height="48" viewBox="0 0 181 48" fill="none" xmlns="http://www.w3.org/2000/svg">
<g clip-path="url(#clip0_7805_169)">
<path d="M78.851 32.6782V1.33515H81.5824L95.9105 25.7829H94.4777L108.672 1.33515H111.403V32.6782H108.224V6.30527H108.985L95.9105 28.6932H94.3435L81.1791 6.30527H82.0301V32.6782H78.851ZM144.54 1.33515H147.809V32.6782H144.54V1.33515ZM124.929 32.6782H121.615V1.33515H124.929V32.6782ZM144.854 18.2156H124.57V15.3052H144.854V18.2156ZM166.681 32.9469C164.353 32.9469 162.114 32.5737 159.965 31.8276C157.845 31.0514 156.204 30.0663 155.039 28.8722L156.338 26.32C157.442 27.3946 158.92 28.305 160.771 29.0514C162.651 29.7678 164.621 30.126 166.681 30.126C168.651 30.126 170.248 29.8873 171.472 29.4096C172.726 28.9022 173.636 28.2305 174.203 27.3946C174.801 26.559 175.099 25.6336 175.099 24.6184C175.099 23.3946 174.741 22.4098 174.024 21.6634C173.338 20.9171 172.427 20.335 171.293 19.9171C170.159 19.4694 168.905 19.0813 167.532 18.7529C166.159 18.4246 164.786 18.0813 163.413 17.7231C162.04 17.3351 160.771 16.8276 159.607 16.2007C158.472 15.5739 157.547 14.753 156.83 13.7381C156.144 12.6933 155.801 11.3351 155.801 9.66345C155.801 8.11122 156.204 6.69333 157.01 5.40977C157.845 4.09633 159.114 3.05156 160.815 2.27546C162.517 1.46949 164.696 1.06652 167.353 1.06652C169.114 1.06652 170.86 1.32023 172.592 1.82769C174.323 2.30531 175.816 2.97695 177.069 3.84261L175.95 6.48438C174.606 5.58887 173.174 4.93215 171.651 4.51426C170.159 4.09633 168.711 3.88738 167.308 3.88738C165.427 3.88738 163.875 4.1411 162.651 4.64856C161.428 5.15602 160.517 5.84258 159.92 6.70825C159.353 7.54407 159.069 8.4993 159.069 9.57391C159.069 10.7978 159.413 11.7829 160.099 12.5291C160.815 13.2754 161.741 13.8575 162.875 14.2754C164.04 14.6933 165.308 15.0664 166.681 15.3948C168.054 15.7231 169.413 16.0813 170.756 16.4694C172.129 16.8574 173.383 17.3649 174.517 17.9918C175.681 18.5888 176.606 19.3947 177.293 20.4097C178.009 21.4246 178.368 22.753 178.368 24.3948C178.368 25.9171 177.95 27.3349 177.114 28.6485C176.278 29.9321 174.995 30.9767 173.263 31.7829C171.562 32.5587 169.368 32.9469 166.681 32.9469Z" fill="white"/>
<path d="M80.2936 46.2152C79.826 46.2152 79.3864 46.1123 78.9744 45.9063C78.5704 45.7003 78.2456 45.4074 78 45.0269L78.511 44.4327C78.7406 44.7654 79.006 45.0191 79.3071 45.1932C79.6082 45.3675 79.9409 45.4547 80.3053 45.4547C81.3352 45.4547 81.8501 44.8447 81.8501 43.6248V38.5861H78.8082V37.8256H82.7177V43.5892C82.7177 44.4686 82.5117 45.1259 82.0996 45.5618C81.6957 45.9974 81.0936 46.2152 80.2936 46.2152ZM88.7063 46.2152C87.6447 46.2152 86.8091 45.9102 86.1992 45.3002C85.5889 44.6903 85.2839 43.7871 85.2839 42.591V37.8256H86.1633V42.5551C86.1633 43.5376 86.3853 44.2625 86.8287 44.7298C87.2725 45.1974 87.8985 45.4309 88.7063 45.4309C89.5223 45.4309 90.1522 45.1974 90.5959 44.7298C91.0393 44.2625 91.2614 43.5376 91.2614 42.5551V37.8256H92.1169V42.591C92.1169 43.7871 91.8119 44.6903 91.202 45.3002C90.5998 45.9102 89.7678 46.2152 88.7063 46.2152ZM94.7667 46.144V37.8256H95.4916L101.231 45.0508H100.851V37.8256H101.719V46.144H100.994L95.266 38.9189H95.646V46.144H94.7667ZM104.433 46.144V37.8256H105.313V46.144H104.433ZM111.656 46.2152C111.03 46.2152 110.447 46.1123 109.909 45.9063C109.378 45.6924 108.915 45.3953 108.518 45.0152C108.13 44.6269 107.825 44.1793 107.603 43.6722C107.389 43.1572 107.283 42.5949 107.283 41.985C107.283 41.3747 107.389 40.8163 107.603 40.3092C107.825 39.7943 108.13 39.3466 108.518 38.9665C108.915 38.5783 109.378 38.2811 109.909 38.0754C110.44 37.8612 111.022 37.7545 111.656 37.7545C112.281 37.7545 112.86 37.8612 113.39 38.0754C113.921 38.2811 114.381 38.5744 114.769 38.9548C115.165 39.3349 115.47 39.7825 115.684 40.2975C115.906 40.8124 116.017 41.3747 116.017 41.985C116.017 42.5949 115.906 43.1572 115.684 43.6722C115.47 44.1871 115.165 44.6348 114.769 45.0152C114.381 45.3953 113.921 45.6924 113.39 45.9063C112.86 46.1123 112.281 46.2152 111.656 46.2152ZM111.656 45.4309C112.155 45.4309 112.614 45.3479 113.034 45.1814C113.462 45.007 113.83 44.7654 114.139 44.4565C114.456 44.1398 114.702 43.7754 114.876 43.3633C115.05 42.9434 115.137 42.4839 115.137 41.985C115.137 41.4857 115.05 41.0302 114.876 40.6181C114.702 40.1985 114.456 39.8341 114.139 39.5249C113.83 39.2082 113.462 38.9665 113.034 38.8C112.614 38.626 112.155 38.5388 111.656 38.5388C111.157 38.5388 110.693 38.626 110.265 38.8C109.837 38.9665 109.465 39.2082 109.148 39.5249C108.839 39.8341 108.594 40.1985 108.411 40.6181C108.237 41.0302 108.15 41.4857 108.15 41.985C108.15 42.4761 108.237 42.9316 108.411 43.3515C108.594 43.7714 108.839 44.1398 109.148 44.4565C109.465 44.7654 109.837 45.007 110.265 45.1814C110.693 45.3479 111.157 45.4309 111.656 45.4309ZM117.988 46.144V37.8256H121.101C121.806 37.8256 122.412 37.9406 122.919 38.1705C123.426 38.3922 123.815 38.7171 124.084 39.1448C124.361 39.5647 124.5 40.0758 124.5 40.6776C124.5 41.264 124.361 41.7711 124.084 42.1989C123.815 42.6185 123.426 42.9434 122.919 43.1732C122.412 43.3949 121.806 43.506 121.101 43.506H118.475L118.867 43.1017V46.144H117.988ZM123.668 46.144L121.529 43.1256H122.48L124.631 46.144H123.668ZM118.867 43.1732L118.475 42.7572H121.077C121.909 42.7572 122.539 42.575 122.967 42.2106C123.402 41.8462 123.62 41.3352 123.62 40.6776C123.62 40.0121 123.402 39.4971 122.967 39.1327C122.539 38.7683 121.909 38.5861 121.077 38.5861H118.475L118.867 38.1705V43.1732ZM131.979 46.2152C131.361 46.2152 130.767 46.1162 130.196 45.918C129.634 45.7123 129.198 45.4508 128.889 45.134L129.234 44.4565C129.527 44.7419 129.919 44.9835 130.41 45.1814C130.909 45.3714 131.432 45.4665 131.979 45.4665C132.502 45.4665 132.925 45.4031 133.25 45.2764C133.583 45.1419 133.825 44.9636 133.975 44.7419C134.134 44.5198 134.213 44.2743 134.213 44.0049C134.213 43.6803 134.118 43.4188 133.928 43.2206C133.745 43.0227 133.504 42.8683 133.203 42.7572C132.902 42.6384 132.569 42.5355 132.204 42.4483C131.84 42.3611 131.476 42.27 131.111 42.175C130.747 42.0718 130.41 41.9373 130.101 41.7711C129.8 41.6046 129.555 41.3868 129.364 41.1174C129.182 40.8402 129.091 40.4797 129.091 40.0359C129.091 39.6242 129.198 39.2477 129.412 38.9071C129.634 38.5584 129.97 38.2811 130.422 38.0754C130.873 37.8612 131.452 37.7545 132.157 37.7545C132.624 37.7545 133.088 37.8217 133.547 37.9566C134.007 38.0833 134.403 38.2616 134.736 38.4911L134.439 39.1922C134.082 38.9548 133.702 38.7804 133.298 38.6694C132.902 38.5584 132.517 38.5032 132.145 38.5032C131.646 38.5032 131.234 38.5705 130.909 38.705C130.584 38.8398 130.343 39.022 130.184 39.2516C130.034 39.4736 129.959 39.727 129.959 40.0121C129.959 40.337 130.05 40.5985 130.232 40.7964C130.422 40.9946 130.667 41.1491 130.968 41.2601C131.277 41.3708 131.614 41.47 131.979 41.5569C132.343 41.6441 132.704 41.7391 133.06 41.8423C133.424 41.9451 133.757 42.08 134.058 42.2462C134.367 42.4046 134.613 42.6185 134.795 42.8878C134.985 43.1572 135.08 43.5099 135.08 43.9455C135.08 44.3497 134.969 44.7259 134.747 45.0746C134.526 45.4152 134.185 45.6924 133.725 45.9063C133.274 46.1123 132.692 46.2152 131.979 46.2152ZM140.609 46.2152C139.983 46.2152 139.404 46.1123 138.874 45.9063C138.343 45.6924 137.883 45.3953 137.495 45.0152C137.107 44.6348 136.802 44.1871 136.58 43.6722C136.366 43.1572 136.259 42.5949 136.259 41.985C136.259 41.3747 136.366 40.8124 136.58 40.2975C136.802 39.7825 137.107 39.3349 137.495 38.9548C137.891 38.5744 138.355 38.2811 138.886 38.0754C139.416 37.8612 139.995 37.7545 140.62 37.7545C141.223 37.7545 141.789 37.8573 142.32 38.0634C142.851 38.2616 143.298 38.5626 143.663 38.9665L143.104 39.5249C142.763 39.1765 142.387 38.927 141.975 38.7765C141.563 38.6178 141.12 38.5388 140.644 38.5388C140.145 38.5388 139.682 38.626 139.254 38.8C138.826 38.9665 138.454 39.2082 138.137 39.5249C137.82 39.8341 137.571 40.1985 137.388 40.6181C137.214 41.0302 137.127 41.4857 137.127 41.985C137.127 42.4839 137.214 42.9434 137.388 43.3633C137.571 43.7754 137.82 44.1398 138.137 44.4565C138.454 44.7654 138.826 45.007 139.254 45.1814C139.682 45.3479 140.145 45.4309 140.644 45.4309C141.12 45.4309 141.563 45.3518 141.975 45.1932C142.387 45.0348 142.763 44.7814 143.104 44.4327L143.663 44.9914C143.298 45.3953 142.851 45.7003 142.32 45.9063C141.789 46.1123 141.219 46.2152 140.609 46.2152ZM151.621 37.8256H152.489V46.144H151.621V37.8256ZM146.417 46.144H145.537V37.8256H146.417V46.144ZM151.704 42.3056H146.321V41.5334H151.704V42.3056ZM158.84 46.2152C158.214 46.2152 157.632 46.1123 157.093 45.9063C156.563 45.6924 156.099 45.3953 155.703 45.0152C155.315 44.6269 155.01 44.1793 154.788 43.6722C154.574 43.1572 154.467 42.5949 154.467 41.985C154.467 41.3747 154.574 40.8163 154.788 40.3092C155.01 39.7943 155.315 39.3466 155.703 38.9665C156.099 38.5783 156.563 38.2811 157.093 38.0754C157.624 37.8612 158.206 37.7545 158.84 37.7545C159.466 37.7545 160.044 37.8612 160.575 38.0754C161.106 38.2811 161.565 38.5744 161.954 38.9548C162.35 39.3349 162.655 39.7825 162.869 40.2975C163.09 40.8124 163.201 41.3747 163.201 41.985C163.201 42.5949 163.09 43.1572 162.869 43.6722C162.655 44.1871 162.35 44.6348 161.954 45.0152C161.565 45.3953 161.106 45.6924 160.575 45.9063C160.044 46.1123 159.466 46.2152 158.84 46.2152ZM158.84 45.4309C159.339 45.4309 159.799 45.3479 160.218 45.1814C160.646 45.007 161.015 44.7654 161.324 44.4565C161.64 44.1398 161.886 43.7754 162.06 43.3633C162.235 42.9434 162.322 42.4839 162.322 41.985C162.322 41.4857 162.235 41.0302 162.06 40.6181C161.886 40.1985 161.64 39.8341 161.324 39.5249C161.015 39.2082 160.646 38.9665 160.218 38.8C159.799 38.626 159.339 38.5388 158.84 38.5388C158.341 38.5388 157.878 38.626 157.45 38.8C157.022 38.9665 156.65 39.2082 156.333 39.5249C156.024 39.8341 155.778 40.1985 155.596 40.6181C155.422 41.0302 155.335 41.4857 155.335 41.985C155.335 42.4761 155.422 42.9316 155.596 43.3515C155.778 43.7714 156.024 44.1398 156.333 44.4565C156.65 44.7654 157.022 45.007 157.45 45.1814C157.878 45.3479 158.341 45.4309 158.84 45.4309ZM168.808 46.2152C168.183 46.2152 167.6 46.1123 167.062 45.9063C166.531 45.6924 166.068 45.3953 165.672 45.0152C165.283 44.6269 164.978 44.1793 164.756 43.6722C164.542 43.1572 164.436 42.5949 164.436 41.985C164.436 41.3747 164.542 40.8163 164.756 40.3092C164.978 39.7943 165.283 39.3466 165.672 38.9665C166.068 38.5783 166.531 38.2811 167.062 38.0754C167.592 37.8612 168.175 37.7545 168.808 37.7545C169.434 37.7545 170.013 37.8612 170.543 38.0754C171.074 38.2811 171.534 38.5744 171.922 38.9548C172.318 39.3349 172.623 39.7825 172.837 40.2975C173.059 40.8124 173.17 41.3747 173.17 41.985C173.17 42.5949 173.059 43.1572 172.837 43.6722C172.623 44.1871 172.318 44.6348 171.922 45.0152C171.534 45.3953 171.074 45.6924 170.543 45.9063C170.013 46.1123 169.434 46.2152 168.808 46.2152ZM168.808 45.4309C169.308 45.4309 169.767 45.3479 170.187 45.1814C170.615 45.007 170.983 44.7654 171.292 44.4565C171.609 44.1398 171.855 43.7754 172.029 43.3633C172.203 42.9434 172.29 42.4839 172.29 41.985C172.29 41.4857 172.203 41.0302 172.029 40.6181C171.855 40.1985 171.609 39.8341 171.292 39.5249C170.983 39.2082 170.615 38.9665 170.187 38.8C169.767 38.626 169.308 38.5388 168.808 38.5388C168.31 38.5388 167.846 38.626 167.418 38.8C166.99 38.9665 166.618 39.2082 166.301 39.5249C165.992 39.8341 165.747 40.1985 165.564 40.6181C165.39 41.0302 165.303 41.4857 165.303 41.985C165.303 42.4761 165.39 42.9316 165.564 43.3515C165.747 43.7714 165.992 44.1398 166.301 44.4565C166.618 44.7654 166.99 45.007 167.418 45.1814C167.846 45.3479 168.31 45.4309 168.808 45.4309ZM175.141 46.144V37.8256H176.02V45.3835H180.678V46.144H175.141Z" fill="white"/>
<path fill-rule="evenodd" clip-rule="evenodd" d="M49.2882 15.4295C48.2714 15.6047 49.7577 18.0181 53.1899 18.0905C52.9845 16.5954 52.1016 15.4321 50.8718 14.97L49.3577 14.9213C49.7032 15.54 49.8638 15.3261 50.7602 16.1899C50.9257 16.3494 51.0139 16.4346 51.1419 16.5644C50.9345 16.4769 49.3949 15.7822 49.3372 15.5049C49.329 15.4658 49.3045 15.4547 49.2882 15.4295Z" fill="white"/>
<path fill-rule="evenodd" clip-rule="evenodd" d="M46.1776 11.3558C46.6531 13.0816 47.1693 13.6769 48.912 13.9905C48.6423 13.2488 48.3667 13.1564 48.0457 12.3993C48.7785 12.8259 48.7246 13.4309 49.359 13.6406C49.3643 11.4333 48.5904 10.2307 46.0986 9.82641L46.1776 11.3558Z" fill="white"/>
<path fill-rule="evenodd" clip-rule="evenodd" d="M57.6297 31.1494C56.5558 29.089 56.5881 27.6343 53.3979 27.8328L55.3734 29.5752C55.0269 29.4619 54.6371 29.1719 54.257 28.9365C54.2139 28.91 53.6692 28.5672 53.6624 28.5646C52.7729 28.2171 53.3332 28.2302 53.1063 28.6815C53.8661 30.9215 55.3531 31.3593 57.6297 31.1494Z" fill="white"/>
<path fill-rule="evenodd" clip-rule="evenodd" d="M53.5585 25.055L53.2819 26.8033C54.9646 25.9931 55.264 24.4581 54.6077 22.2792L54.2795 21.6591C52.3432 22.624 51.7169 24.6919 52.7556 26.6776C53.0259 26.3625 53.0129 26.2387 53.1726 25.7231C53.3022 25.3061 53.4044 25.022 53.47 24.6074C53.7156 24.9296 53.5259 24.5767 53.5585 25.055Z" fill="white"/>
<path fill-rule="evenodd" clip-rule="evenodd" d="M15.538 24.4483L14.442 21.9902L15.9204 24.1874C15.9891 24.1029 16.159 24.2096 16.2514 23.313C16.2931 22.9087 16.2839 22.6563 16.2126 22.2557C15.9428 20.7384 14.3669 19.2695 12.8793 19.0216C11.9916 20.7374 13.6163 24.8888 15.538 24.4483Z" fill="white"/>
<path fill-rule="evenodd" clip-rule="evenodd" d="M50.1783 13.5061C50.3546 13.8749 50.3197 13.7987 50.8852 13.6657C51.568 13.5051 52.6302 13.0617 53.3796 13.0081L50.3797 14.2929L50.9414 14.6703C53.4086 15.6052 55.2013 13.8577 56.1554 12.028C55.8798 11.8059 55.8018 11.7901 55.4122 11.6763C51.7962 10.6194 50.9029 12.7795 50.1783 13.5061Z" fill="white"/>
<path fill-rule="evenodd" clip-rule="evenodd" d="M54.319 26.6913L57.486 25.8475L54.5241 27.2105C55.9735 28.7109 59.6673 27.3404 60.6576 24.7873C59.8188 24.1835 57.9553 23.9925 56.8558 24.321C55.6999 24.6665 54.6844 25.5344 54.319 26.6913Z" fill="white"/>
<path fill-rule="evenodd" clip-rule="evenodd" d="M9.883 33.9957C10.3322 34.1871 13.209 33.8028 14.0881 33.7512C15.4652 33.6699 17.2746 33.6931 18.6423 33.8452C20.2979 34.0294 25.0094 34.8552 25.9553 35.6578C26.8541 35.8948 27.6344 36.3902 28.4068 36.801C29.2111 37.2287 29.8507 37.7548 30.5903 38.0989C31.0643 38.5704 31.6649 38.9495 32.3058 39.4733C33.1598 40.1708 33.502 40.7102 34.0108 40.958C33.6189 40.0186 31.8174 38.3118 31.0159 37.7783C30.3023 36.8973 28.2069 35.7531 26.9629 35.15C25.4067 34.3957 23.8646 33.8331 21.9339 33.4472C18.0075 32.6619 13.5258 32.8424 9.883 33.9957Z" fill="white"/>
<path fill-rule="evenodd" clip-rule="evenodd" d="M42.9894 35.3495L42.5074 35.7473C42.304 35.873 42.0957 35.9778 41.9115 36.0921C41.4544 36.3755 41.2219 36.5169 40.7749 36.8287C39.4109 37.9709 38.382 38.6403 37.2408 40.017C36.9962 40.3115 36.4467 41.0139 36.2926 41.3842C36.4268 41.2967 38.3739 39.5004 38.6135 39.2382C38.6361 39.2137 38.7171 39.1478 38.7442 39.1207C39.5964 38.1198 43.5504 35.9589 44.7096 35.6366C45.5873 34.8212 50.5525 34.0007 52.0493 33.8446C56.2782 33.4034 57.153 33.9896 60.6269 34.1051L60.1473 33.8025C60.1091 33.7878 59.6816 33.6911 59.5961 33.6722C56.9548 33.0776 54.1296 32.7158 51.425 33.041C49.8165 33.198 48.3066 33.455 46.8392 33.8828C46.1394 34.0865 45.487 34.3344 44.8539 34.5832C44.2282 34.8287 43.4681 35.3394 42.9894 35.3495Z" fill="white"/>
<path fill-rule="evenodd" clip-rule="evenodd" d="M2.05708 44.4715C1.97439 45.0145 1.46571 45.5847 1.08695 46.1816C0.890112 46.4918 0.755156 46.7357 0.567992 47.0041C0.231783 47.4857 0.248686 47.233 0.131622 47.7864L0.672926 47.5755C2.48118 46.4013 6.98395 44.8186 9.37612 44.0555C16.1623 42.2034 23.7124 40.4803 30.5851 44.0304C31.7494 44.6318 32.2241 45.0028 33.1634 45.7482L35.3087 47.8243C35.6699 47.535 35.4351 47.7257 35.7319 47.3662C35.872 47.1964 35.8834 47.1673 36.0411 47.006C37.0005 46.0255 37.2059 45.8573 38.4385 44.9855C46.2054 39.4932 58.3758 42.6041 66.5015 45.9905C67.6529 46.4702 69.5076 47.503 70.4695 47.7832C70.4 47.5066 70.369 47.454 70.2824 47.2323C69.9304 46.9649 68.5391 44.6926 68.2077 44.1381C67.5651 43.0622 66.8679 42.0963 66.2008 41.0501L64.2295 37.906C63.8926 37.4612 63.9801 37.6251 63.3362 37.438L60.4562 36.6733C57.4573 35.9948 54.5074 35.7198 51.3097 35.8893C49.8099 35.9687 48.3899 36.1789 46.9469 36.542C46.2122 36.7269 43.6725 37.4811 43.3665 37.8328C41.8168 38.2958 39.7848 39.7669 38.8212 40.51C36.6625 42.1753 37.0279 42.0931 35.5151 43.9497C35.3521 44.1495 35.3969 44.0833 35.3087 44.1825L34.5544 43.2793C34.2766 42.9567 34.1055 42.7239 33.8299 42.384C33.1628 41.5615 32.9009 41.5076 32.2296 40.8878C31.1319 39.8746 29.9269 39.1285 28.4369 38.3592C21.846 34.9548 14.5476 35.3623 7.49491 37.3659C6.36155 37.6878 6.28867 38.048 5.76799 38.9081C5.45621 39.423 2.45099 44.2198 2.05708 44.4715Z" fill="white"/>
<path fill-rule="evenodd" clip-rule="evenodd" d="M44.6302 25.8116C46.895 28.174 50.8643 24.9541 48.5691 22.1362C47.7623 21.1459 46.21 20.8988 45.006 21.7215C43.7548 22.5763 43.4919 24.624 44.6302 25.8116Z" fill="white"/>
<path fill-rule="evenodd" clip-rule="evenodd" d="M11.134 24.9182L9.84967 24.673L14.3081 24.689C13.2693 22.8656 10.7477 22.4353 8.83237 23.1465C8.08399 23.4243 7.01023 23.95 6.66208 24.5185C7.27047 25.282 8.76389 26.3272 10.097 26.6318C11.8219 27.026 13.7344 26.2658 14.3266 25.2653L11.6091 24.9391L11.134 24.9182Z" fill="white"/>
<path fill-rule="evenodd" clip-rule="evenodd" d="M34.1029 13.5123C35.6539 14.2947 37.6676 13.4525 38.1453 11.7621C38.7004 9.79983 37.167 7.95373 35.1729 8.09368C32.4193 8.28685 31.4155 12.1568 34.1029 13.5123Z" fill="white"/>
<path fill-rule="evenodd" clip-rule="evenodd" d="M15.7671 25.775C15.5195 26.0855 15.275 26.5156 15.0024 26.9045C14.6958 27.3417 14.3785 27.7123 14.137 28.16C14.3957 27.8648 14.2453 28.0741 14.5078 27.9288C14.6046 27.6637 15.0015 27.264 15.2272 27.0047C15.6239 26.5489 15.7302 26.3161 16.3095 26.0937C16.046 29.1628 14.8239 30.0307 12.0622 30.6971C12.0669 28.5388 12.9586 25.4266 15.7671 25.775Z" fill="white"/>
<path fill-rule="evenodd" clip-rule="evenodd" d="M23.1425 24.1966C24.9019 25.9654 28.2415 24.4836 27.6932 21.6606C27.3078 19.6766 24.7206 18.9473 23.2553 20.2564C22.1285 21.2631 22.0917 23.1402 23.1425 24.1966Z" fill="white"/>
<path fill-rule="evenodd" clip-rule="evenodd" d="M28.6006 27.7404C26.5295 27.0877 26.7751 26.5881 22.818 25.7277C20.6088 25.2474 17.9683 25.0792 15.6152 25.2738C17.2916 25.3453 21.1663 26.8154 22.5713 27.4593C23.5797 27.9216 24.602 28.5558 25.4515 29.1468C27.1815 30.3507 29.0522 32.289 30.0908 34.1594C30.4541 34.8137 31.1822 36.0529 31.2002 36.8229C31.5519 36.6883 31.4875 37.0034 31.7841 35.7571C32.566 32.4699 32.6922 29.3636 32.0917 26.0069C31.788 24.3102 31.3151 22.8601 30.698 21.3498C30.4217 20.6736 22.7831 8.8052 26.2428 15.4783C28.1401 19.1378 29.1141 24.0839 28.6006 27.7404Z" fill="white"/>
<path fill-rule="evenodd" clip-rule="evenodd" d="M24.4988 7.15285C24.5346 7.25923 26.908 9.89597 27.3306 10.4659C29.2375 13.0379 30.6048 15.9751 31.7265 18.9547C32.1841 20.1702 32.5763 21.3456 32.9548 22.559C33.6728 24.8598 34.5757 28.0758 34.9032 30.5616L35.5265 33.9226C35.9585 32.7624 36.2877 30.0464 36.5936 28.6162C37.2568 25.5167 38.3249 21.7148 39.441 18.8394C40.703 15.5874 43.8011 8.9391 46.6815 7.31076C46.7693 7.16552 46.7455 7.14899 46.7801 7.06984C35.9964 11.9571 38.0833 20.2155 33.4658 16.1702C30.7714 13.8095 28.9801 8.97714 24.4988 7.15285Z" fill="white"/>
<path fill-rule="evenodd" clip-rule="evenodd" d="M40.0878 35.7845C42.6387 34.1469 44.6684 30.863 48.5104 29.1318C50.1522 28.3918 51.0338 28.1189 52.7105 27.6575L53.4576 27.3185C50.6867 26.8705 49.4478 27.3375 46.8598 27.5951C46.1685 27.7701 45.5527 27.9177 44.8369 28.1211C44.4562 28.2292 44.2384 28.3239 43.8273 28.4673C42.8604 28.8052 42.5753 29.5576 42.5254 27.8838C42.4238 24.4908 43.1494 21.9373 44.7128 19.1535C45.9037 17.0595 47.2656 16.2434 48.8258 14.7049C46.8118 15.4883 45.2225 16.6294 43.6722 18.1063C40.272 21.345 39.0299 25.6777 39.1716 30.4284C39.2441 32.8536 39.5517 33.6807 40.0878 35.7845Z" fill="white"/>
<path fill-rule="evenodd" clip-rule="evenodd" d="M47.23 6.21757C47.8694 5.89659 48.3592 5.50707 48.9319 5.1008C49.5347 4.67301 49.9918 4.38057 50.5496 3.98586C50.3465 4.37473 47.8341 6.62727 47.6216 6.77006C51.056 7.28784 53.1817 4.79252 53.5256 1.59305C50.1995 1.56545 47.7502 2.49274 47.23 6.21757Z" fill="white"/>
<path fill-rule="evenodd" clip-rule="evenodd" d="M45.6947 6.73966C45.7525 6.1966 45.7045 5.72147 45.6797 5.18625C45.6536 4.62276 45.6542 4.20862 45.631 3.68764C45.7969 3.97845 46.207 6.52069 46.211 6.71608C47.9599 4.72441 47.2346 2.33032 45.3221 0.789909C43.9324 2.91432 43.5177 4.86942 45.6947 6.73966Z" fill="white"/>
<path fill-rule="evenodd" clip-rule="evenodd" d="M46.8287 7.73146C47.3322 8.00516 47.8122 8.14896 48.3415 8.33959C48.8986 8.54024 49.2999 8.707 49.8145 8.89322C49.4661 8.93757 46.8356 8.31611 46.6446 8.2417C47.8753 10.7367 50.4885 10.9928 52.7494 9.75523C51.2457 7.55562 49.5157 6.3694 46.8287 7.73146Z" fill="white"/>
<path fill-rule="evenodd" clip-rule="evenodd" d="M22.8647 6.43552C22.3818 5.90736 21.8737 5.54207 21.327 5.10161C20.7513 4.63794 20.3455 4.27764 19.8139 3.84819C20.2434 3.93786 23.0945 5.74266 23.2898 5.90837C22.8535 2.46259 19.874 1.09593 16.7016 1.63555C17.5801 4.84385 19.1389 6.94847 22.8647 6.43552Z" fill="white"/>
<path fill-rule="evenodd" clip-rule="evenodd" d="M23.7848 7.77068C23.2465 7.86292 22.8024 8.03847 22.2941 8.2079C21.759 8.38629 21.3603 8.49826 20.8653 8.66247C21.1 8.42371 23.4347 7.33734 23.6217 7.28033C21.2293 6.13927 19.1228 7.48879 18.1609 9.74828C20.5833 10.5074 22.5775 10.3746 23.7848 7.77068Z" fill="white"/>
<path fill-rule="evenodd" clip-rule="evenodd" d="M24.4307 6.40976C24.557 5.85065 24.5648 5.34949 24.6042 4.78847C24.6457 4.19788 24.6969 3.76624 24.7361 3.22028C24.8736 3.54364 24.9913 6.24392 24.9717 6.4481C27.0377 4.58492 26.5732 2.00065 24.7671 0.161732C23.0596 2.20705 22.3889 4.19474 24.4307 6.40976Z" fill="white"/>
<path fill-rule="evenodd" clip-rule="evenodd" d="M24.8088 13.2837C24.5612 13.0129 24.3007 12.8256 24.0204 12.5997C23.7252 12.362 23.5171 12.1772 23.2446 11.9571C23.4648 12.003 24.9267 12.9284 25.0268 13.0134C24.8031 11.2466 23.2754 10.5458 21.6487 10.8225C22.0992 12.4676 22.8984 13.5467 24.8088 13.2837Z" fill="white"/>
<path fill-rule="evenodd" clip-rule="evenodd" d="M25.2807 13.9683C25.0046 14.0156 24.7769 14.1056 24.5163 14.1925C24.2419 14.2839 24.0375 14.3414 23.7837 14.4255C23.904 14.3031 25.1011 13.7461 25.197 13.7168C23.9703 13.1318 22.8903 13.8237 22.397 14.9823C23.6391 15.3715 24.6616 15.3034 25.2807 13.9683Z" fill="white"/>
<path fill-rule="evenodd" clip-rule="evenodd" d="M25.6118 13.2705C25.6766 12.9838 25.6806 12.7268 25.7008 12.4392C25.7221 12.1363 25.7483 11.915 25.7684 11.6351C25.8389 11.8009 25.8993 13.1854 25.8892 13.2901C26.9485 12.3348 26.7104 11.0097 25.7843 10.0668C24.9088 11.1156 24.5649 12.1347 25.6118 13.2705Z" fill="white"/>
</g>
<defs>
<clipPath id="clip0_7805_169">
<rect width="180.571" height="48" fill="white"/>
</clipPath>
</defs>
</svg>
