<svg width="32" height="32" viewBox="0 0 32 32" fill="none" xmlns="http://www.w3.org/2000/svg">
<path opacity="0.4" d="M24 2.66698C23.9984 2.45886 23.9482 2.25398 23.8533 2.06876C23.7583 1.88354 23.6214 1.72311 23.4533 1.60032C23.2923 1.46701 23.1023 1.37342 22.8984 1.3271C22.6946 1.28078 22.4828 1.28302 22.28 1.33365L13.8 4.00032H24V2.66698Z" fill="white"/>
<path d="M26.6667 6.66699H4V29.3337C4 29.6873 4.14048 30.0264 4.39052 30.2765C4.64057 30.5265 4.97971 30.667 5.33333 30.667H26.6667C27.0203 30.667 27.3594 30.5265 27.6095 30.2765C27.8595 30.0264 28 29.6873 28 29.3337V8.00033C28 7.6467 27.8595 7.30757 27.6095 7.05752C27.3594 6.80747 27.0203 6.66699 26.6667 6.66699ZM22 23.3337H10V20.667H22V23.3337ZM22 16.667H12.6667V14.0003H22V16.667Z" fill="white"/>
</svg>
