<svg width="32" height="32" viewBox="0 0 32 32" fill="none" xmlns="http://www.w3.org/2000/svg">
<path d="M28.5699 3.43806C27.9032 2.75672 26.9166 2.50472 25.9966 2.77139L4.54325 8.97006C3.57258 9.23939 2.88458 10.0087 2.69925 10.9847C2.50991 11.9794 3.17125 13.2434 4.03525 13.7714L10.7432 17.8674C11.4312 18.2887 12.3192 18.1834 12.8886 17.6127L20.5699 9.93139C20.9566 9.53006 21.5966 9.53006 21.9832 9.93139C22.3699 10.3167 22.3699 10.9447 21.9832 11.3447L14.2886 19.0261C13.7179 19.5967 13.6112 20.4821 14.0312 21.1714L18.1299 27.9047C18.6099 28.7034 19.4366 29.1581 20.3432 29.1581C20.4499 29.1581 20.5699 29.1581 20.6766 29.1434C21.7166 29.0114 22.5432 28.3034 22.8499 27.3034L29.2099 6.01139C29.4899 5.10472 29.2366 4.11806 28.5699 3.43806Z" fill="white"/>
<path opacity="0.4" fill-rule="evenodd" clip-rule="evenodd" d="M4.01407 22.4108C3.75807 22.4108 3.50207 22.3135 3.3074 22.1175C2.91674 21.7268 2.91674 21.0948 3.3074 20.7042L5.1274 18.8828C5.51807 18.4935 6.1514 18.4935 6.54207 18.8828C6.9314 19.2735 6.9314 19.9068 6.54207 20.2975L4.72074 22.1175C4.52607 22.3135 4.27007 22.4108 4.01407 22.4108ZM9.029 24.0007C8.773 24.0007 8.517 23.9034 8.32234 23.7074C7.93167 23.3167 7.93167 22.6847 8.32234 22.294L10.1423 20.4727C10.533 20.0834 11.1663 20.0834 11.557 20.4727C11.9463 20.8634 11.9463 21.4967 11.557 21.8874L9.73567 23.7074C9.541 23.9034 9.285 24.0007 9.029 24.0007ZM9.36727 28.758C9.56194 28.954 9.81794 29.0514 10.0739 29.0514C10.3299 29.0514 10.5859 28.954 10.7806 28.758L12.6019 26.938C12.9913 26.5474 12.9913 25.914 12.6019 25.5234C12.2113 25.134 11.5779 25.134 11.1873 25.5234L9.36727 27.3447C8.9766 27.7354 8.9766 28.3674 9.36727 28.758Z" fill="white"/>
</svg>
